<?xml version="1.0" encoding="utf-8"?>
<!-- Generator: Adobe Illustrator 16.0.0, SVG Export Plug-In . SVG Version: 6.00 Build 0)  -->
<!DOCTYPE svg PUBLIC "-//W3C//DTD SVG 1.1//EN" "http://www.w3.org/Graphics/SVG/1.1/DTD/svg11.dtd">
<svg version="1.1" id="レイヤー_1" xmlns="http://www.w3.org/2000/svg" xmlns:xlink="http://www.w3.org/1999/xlink" x="0px"
	 y="0px" width="1792px" height="1792px" viewBox="0 0 1792 1792" enable-background="new 0 0 1792 1792" xml:space="preserve">
<path fill="#FFFFFF" d="M896.75,0c161.967,0,311.338,41.013,448.119,123.037c136.779,82.023,245.079,193.314,324.899,333.872
	C1749.589,597.465,1789.5,750.962,1789.5,917.4c0,199.884-56.764,379.661-170.297,539.331
	c-113.531,159.669-260.192,270.163-439.981,331.483c-20.924,3.98-36.424,1.192-46.498-8.362
	c-10.074-9.556-15.11-21.502-15.11-35.837c0-2.388,0.193-32.849,0.58-91.382c0.387-58.531,0.581-112.086,0.581-160.664
	c0-77.247-20.148-133.787-60.445-169.623c44.172-4.778,83.89-11.945,119.149-21.502c35.26-9.556,71.684-25.084,109.268-46.587
	c37.586-21.502,68.971-47.981,94.158-79.437c25.186-31.455,45.723-73.264,61.609-125.425s23.83-112.087,23.83-179.777
	c0-94.766-30.612-176.791-91.833-246.074c28.674-72.469,25.574-153.697-9.299-243.685c-21.699-7.167-53.085-2.787-94.157,13.14
	c-41.073,15.927-76.721,33.447-106.945,52.559l-44.172,28.67c-72.07-20.705-146.467-31.058-223.188-31.058
	s-151.116,10.353-223.188,31.058c-12.4-8.76-28.867-19.511-49.404-32.253c-20.537-12.742-52.89-28.071-97.063-45.989
	s-77.108-23.293-98.807-16.126c-34.873,89.988-37.974,171.216-9.3,243.685c-61.222,69.283-91.832,151.308-91.832,246.074
	c0,67.69,7.942,127.417,23.83,179.179c15.887,51.762,36.229,93.571,61.028,125.427c24.798,31.854,55.991,58.53,93.576,80.032
	c37.585,21.503,74.009,37.031,109.27,46.587c35.259,9.557,74.977,16.724,119.149,21.502c-30.223,28.67-49.208,69.682-56.959,123.037
	c-16.274,7.963-33.711,13.938-52.31,17.917c-18.599,3.982-40.686,5.974-66.259,5.974s-50.953-8.562-76.139-25.683
	c-25.187-17.122-46.692-42.009-64.515-74.659c-14.725-25.482-33.517-46.188-56.378-62.116
	c-22.862-15.925-42.042-25.482-57.541-28.668l-23.249-3.584c-16.273,0-27.511,1.792-33.71,5.376
	c-6.2,3.585-8.138,8.163-5.812,13.736c2.325,5.576,5.812,11.149,10.462,16.725s9.687,10.353,15.111,14.334l8.138,5.973
	c17.049,7.965,33.904,23.095,50.566,45.392c16.661,22.3,28.866,42.605,36.617,60.922l11.624,27.475
	c10.075,30.26,27.123,54.748,51.147,73.464c24.024,18.715,49.984,30.659,77.883,35.836c27.898,5.175,54.829,7.964,80.79,8.36
	c25.96,0.398,47.465-0.994,64.515-4.181l26.735-4.777c0,30.262,0.194,65.5,0.582,105.716s0.582,61.917,0.582,65.102
	c0,14.335-5.037,26.281-15.112,35.837c-10.075,9.555-25.573,12.343-46.497,8.362c-179.791-61.32-326.45-171.814-439.982-331.483
	C60.766,1297.062,4,1117.284,4,917.4c0-166.438,39.91-319.936,119.73-460.491c79.822-140.558,188.121-251.849,324.901-333.872
	C585.412,41.013,734.785,0,896.75,0z M342.269,1317.568c2.325-5.574-0.387-10.353-8.137-14.335
	c-7.75-2.389-12.787-1.592-15.112,2.391c-2.324,5.573,0.387,10.353,8.138,14.332
	C334.132,1324.735,339.168,1323.938,342.269,1317.568z M378.304,1358.183c5.425-3.982,4.65-10.354-2.324-19.113
	c-7.75-7.166-13.949-8.361-18.6-3.583c-5.425,3.981-4.649,10.353,2.325,19.113C367.456,1362.563,373.654,1363.757,378.304,1358.183z
	 M413.177,1411.937c6.975-5.575,6.975-13.14,0-22.696c-6.199-10.352-12.786-12.742-19.761-7.168c-6.975,3.983-6.975,11.148,0,21.503
	C400.391,1413.929,406.978,1416.715,413.177,1411.937z M461.999,1462.106c6.2-6.369,4.65-13.936-4.649-22.695
	c-9.3-9.557-17.049-10.751-23.249-3.585c-6.975,6.37-5.425,13.938,4.65,22.697C448.05,1468.08,455.8,1469.274,461.999,1462.106z
	 M528.258,1491.97c2.325-8.759-2.711-15.131-15.111-19.112c-11.624-3.185-18.986-0.397-22.086,8.361
	c-3.101,8.76,1.938,14.733,15.111,17.918C517.796,1503.916,525.158,1501.525,528.258,1491.97z M601.491,1497.943
	c0-10.354-6.587-14.732-19.761-13.141c-12.4,0-18.6,4.381-18.6,13.141c0,10.354,6.588,14.731,19.762,13.14
	C595.292,1511.083,601.491,1506.703,601.491,1497.943z M668.913,1485.997c-1.549-8.76-8.524-12.344-20.924-10.751
	c-12.4,2.39-17.824,8.362-16.274,17.918s8.524,12.742,20.924,9.556C665.039,1499.535,670.462,1493.962,668.913,1485.997z"/>
</svg>
